<?xml version="1.0" encoding="utf-8"?>
<!-- Generator: Adobe Illustrator 13.0.0, SVG Export Plug-In . SVG Version: 6.00 Build 14948)  -->
<!DOCTYPE svg PUBLIC "-//W3C//DTD SVG 1.1//EN" "http://www.w3.org/Graphics/SVG/1.1/DTD/svg11.dtd">
<svg version="1.1" id="图层_1" xmlns="http://www.w3.org/2000/svg" xmlns:xlink="http://www.w3.org/1999/xlink" x="0px" y="0px"
	 width="49.984px" height="50px" viewBox="0 0 49.984 50" enable-background="new 0 0 49.984 50" xml:space="preserve">
<path fill="#6CB92F" d="M12.491,3.348c5.497-3.264,12.296-4.167,18.478-2.598c6.749,1.543,12.608,6.159,15.995,12.157
	c-6.562,1.466-13.124,3.412-18.903,6.938c-3.538,2.178-6.86,4.88-9.173,8.372c6.548-4.508,13.673-8.717,21.703-9.75
	c-1.207,6.271-4.983,12.26-10.775,15.199c-6.159,3.255-13.481,3.166-20.154,1.816c-0.363-5.918,2.062-11.975,6.477-15.946
	c4.603-4.066,10.703-5.936,16.701-6.638c1.422-0.211,2.908-0.045,4.276-0.551c-6.257-2.223-13.526-2.465-19.52,0.672
	C11.561,16.083,7.438,22.109,5.76,28.562c-1.069,3.284-1.096,6.76-1.543,10.148C0.589,33.956-0.431,27.7,0.155,21.862
	C1.122,14.241,5.742,7.093,12.491,3.348z"/>
<path fill="#20933D" d="M45.215,15.498c0.514-0.703,1.028-1.758,1.936-1.928c3.109,5.726,3.65,12.734,1.67,18.92
	c-2.058,6.933-7.416,12.751-14.059,15.556c-10.069,4.393-23.098,1.212-29.499-7.853c8.329,1.046,17.127,1.505,25.096-1.589
	c4.89-1.869,8.508-6.061,10.668-10.722C42.978,23.951,43.26,19.42,45.215,15.498z"/>
</svg>
